<svg aria-hidden="true" style="width:0;height:0;position:absolute;overflow:hidden" xmlns="http://www.w3.org/2000/svg"><defs><symbol id="icon-close-black" viewBox="0 0 32 32"><path d="m26.667 7.303-1.97-1.97-7.808 7.808-7.808-7.808-1.97 1.97 7.808 7.808-7.808 7.808 1.97 1.97 7.808-7.808 7.808 7.808 1.97-1.97-7.808-7.808 7.808-7.808z"/></symbol><symbol id="icon-favorite" viewBox="0 0 32 32"><path fill="#ff6b08" style="fill:var(--color1,#ff6b08)" d="m16 30.583-2.24-2.24C5.44 20.983 0 16.023 0 9.943c0-4.96 3.84-8.8 8.8-8.8 2.72 0 5.44 1.28 7.2 3.36 1.76-2.08 4.48-3.36 7.2-3.36 4.96 0 8.8 3.84 8.8 8.8 0 6.08-5.44 11.04-13.76 18.4L16 30.583z"/></symbol><symbol id="icon-film-library" viewBox="0 0 32 32"><path fill="none" stroke="#fff" style="stroke:var(--color2,#fff)" stroke-linejoin="round" stroke-linecap="round" stroke-width="2.667" d="M26.427 3.606H5.574c-1.605 0-2.907 1.239-2.907 2.768V26.23c0 1.529 1.301 2.768 2.907 2.768h20.853c1.605 0 2.907-1.239 2.907-2.768V6.374c0-1.529-1.301-2.768-2.907-2.768zM9.333 3.606v25.391M22.667 3.606v25.391M2.667 16.301h26.667M2.667 9.954h6.667M2.667 22.649h6.667M22.667 22.649h6.667M22.667 9.954h6.667"/></symbol><symbol id="icon-film-main" viewBox="0 0 32 32"><path fill="none" stroke="#fff" style="stroke:var(--color2,#fff)" stroke-linejoin="round" stroke-linecap="round" stroke-width="2.667" d="M26.427 2.667H5.574a2.907 2.907 0 0 0-2.907 2.907v20.853a2.907 2.907 0 0 0 2.907 2.907h20.853a2.907 2.907 0 0 0 2.907-2.907V5.574a2.907 2.907 0 0 0-2.907-2.907zM9.333 2.667v26.667M22.667 2.667v26.667M2.667 16h26.667M2.667 9.333h6.667M2.667 22.667h6.667M22.667 22.667h6.667M22.667 9.333h6.667"/></symbol><symbol id="icon-search-main" viewBox="0 0 32 32"><path fill="none" stroke="#fff" style="stroke:var(--color2,#fff)" stroke-linejoin="round" stroke-linecap="round" stroke-width="2.667" d="M14.667 25.333c5.891 0 10.667-4.776 10.667-10.667S20.558 3.999 14.667 3.999 4 8.775 4 14.666s4.776 10.667 10.667 10.667zM28 28.001l-5.8-5.8"/></symbol><symbol id="icon-key" viewBox="0 0 32 32"><path d="M16 31a.992.992 0 0 1-.602-.202l.002.002-4-3a1 1 0 0 1-.4-.8v-9.53c-2.426-1.638-4-4.377-4-7.483 0-4.971 4.029-9 9-9a9 9 0 0 1 5.032 16.463l-.032.02v1.536a.996.996 0 0 1-.29.704L19.41 21l1.3 1.29c.183.181.296.432.296.71s-.113.529-.296.71L19.41 25l1.3 1.29a.997.997 0 0 1 .29.783v-.003a.998.998 0 0 1-.397.728l-.003.002-4 3a.992.992 0 0 1-.6.2zm-3-4.5 3 2.25 2.48-1.86-1.19-1.18c-.183-.181-.296-.432-.296-.71s.113-.529.296-.71l1.3-1.29-1.3-1.29c-.183-.181-.296-.432-.296-.71s.113-.529.296-.71l1.71-1.7v-1.67a.999.999 0 0 1 .495-.857l.005-.003c2.107-1.233 3.5-3.485 3.5-6.062a7 7 0 1 0-10.533 6.044l.033.018c.299.175.498.494.5.86zm7-7.5z"/><path d="M17 8a1 1 0 1 1-2 0 1 1 0 0 1 2 0z"/><path d="M16 10a2 2 0 1 1 2-2 2 2 0 0 1-2 2z"/></symbol><symbol id="icon-moon" viewBox="0 0 32 32"><path d="M13.899 18.089a11.862 11.862 0 0 0 8.405 3.475c1.826 0 3.555-.411 5.101-1.146l-.072.031c-1.931 4.117-6.042 6.917-10.806 6.917-6.572 0-11.899-5.328-11.899-11.899 0-4.76 2.795-8.867 6.833-10.77l.073-.031a11.695 11.695 0 0 0-1.115 5.023c0 3.28 1.33 6.25 3.48 8.399z"/></symbol><symbol id="icon-Sun" viewBox="0 0 32 32"><path d="M24.5 16a8.5 8.5 0 1 1-17.001-.001A8.5 8.5 0 0 1 24.5 16z"/><path stroke-linecap="round" stroke-miterlimit="10" stroke-width="1.5" d="M16 2.5v3M16 26.5v3M29.5 16h-3M5.5 16h-3M25.545 6.455l-2.12 2.12M8.575 23.425l-2.12 2.12M25.545 25.545l-2.12-2.12M8.575 8.575l-2.12-2.12"/></symbol></defs></svg>