<svg xmlns="http://www.w3.org/2000/svg"  viewBox="0 0 62 62"><path d="M35 27.869A7.994 7.994 0 0 1 28 32h14a7.994 7.994 0 0 1-7-4.131" fill="#e53935"/><circle cx="28" cy="24" r="3" fill="#e53935"/><circle cx="42" cy="24" r="3" fill="#e53935"/><path d="M32 2C15.432 2 2 15.432 2 32s13.432 30 30 30 30-13.432 30-30S48.568 2 32 2m14 30c1.1 0 2 .9 2 2v12c0 1.1-.9 2-2 2H23c-1.1 0-2-.9-2-2v-.5L16 48V32l5 2.5V34c0-1.1.9-2 2-2h5a8 8 0 0 1 0-16 7.994 7.994 0 0 1 7 4.131A7.994 7.994 0 0 1 42 16a8 8 0 0 1 0 16h4" fill="#e53935"/></svg>