<svg aria-hidden="true" style="position: absolute; width: 0; height: 0; overflow: hidden;" version="1.1" xmlns="http://www.w3.org/2000/svg" xmlns:xlink="http://www.w3.org/1999/xlink">
<defs>
<symbol id="icon-close-black" viewBox="0 0 32 32">
<path d="m26.667 7.303-1.97-1.97-7.808 7.808-7.808-7.808-1.97 1.97 7.808 7.808-7.808 7.808 1.97 1.97 7.808-7.808 7.808 7.808 1.97-1.97-7.808-7.808 7.808-7.808z"/></symbol>
</symbol>
<symbol id="icon-favorite" viewBox="0 0 32 32">
<path fill="#ff6b08" style="fill: var(--color1, #ff6b08)" d="M16 30.583l-2.24-2.24c-8.32-7.36-13.76-12.32-13.76-18.4 0-4.96 3.84-8.8 8.8-8.8 2.72 0 5.44 1.28 7.2 3.36 1.76-2.080 4.48-3.36 7.2-3.36 4.96 0 8.8 3.84 8.8 8.8 0 6.080-5.44 11.040-13.76 18.4l-2.24 2.24z"></path>
</symbol>
<symbol id="icon-film-library" viewBox="0 0 32 32">
<path stroke-linejoin="round" stroke-linecap="round" stroke-miterlimit="4" stroke-width="2.6667" d="M26.427 3.606h-20.853c-1.605 0-2.907 1.239-2.907 2.768v19.856c0 1.529 1.301 2.768 2.907 2.768h20.853c1.605 0 2.907-1.239 2.907-2.768v-19.856c0-1.529-1.301-2.768-2.907-2.768z"></path>
<path stroke-linejoin="round" stroke-linecap="round" stroke-miterlimit="4" stroke-width="2.6667" d="M9.333 3.606v25.391"></path>
<path stroke-linejoin="round" stroke-linecap="round" stroke-miterlimit="4" stroke-width="2.6667" d="M22.667 3.606v25.391"></path>
<path stroke-linejoin="round" stroke-linecap="round" stroke-miterlimit="4" stroke-width="2.6667" d="M2.667 16.301h26.667"></path>
<path stroke-linejoin="round" stroke-linecap="round" stroke-miterlimit="4" stroke-width="2.6667" d="M2.667 9.954h6.667"></path>
<path stroke-linejoin="round" stroke-linecap="round" stroke-miterlimit="4" stroke-width="2.6667" d="M2.667 22.649h6.667"></path>
<path stroke-linejoin="round" stroke-linecap="round" stroke-miterlimit="4" stroke-width="2.6667" d="M22.667 22.649h6.667"></path>
<path stroke-linejoin="round" stroke-linecap="round" stroke-miterlimit="4" stroke-width="2.6667" d="M22.667 9.954h6.667"></path>
</symbol>
<symbol id="icon-film-main" viewBox="0 0 32 32">
<path stroke-linejoin="round" stroke-linecap="round" stroke-miterlimit="4" stroke-width="2.6667" d="M26.427 2.667h-20.853c-1.605 0-2.907 1.301-2.907 2.907v20.853c0 1.605 1.301 2.907 2.907 2.907h20.853c1.605 0 2.907-1.301 2.907-2.907v-20.853c0-1.605-1.301-2.907-2.907-2.907z"></path>
<path stroke-linejoin="round" stroke-linecap="round" stroke-miterlimit="4" stroke-width="2.6667" d="M9.333 2.667v26.667"></path>
<path stroke-linejoin="round" stroke-linecap="round" stroke-miterlimit="4" stroke-width="2.6667" d="M22.667 2.667v26.667"></path>
<path stroke-linejoin="round" stroke-linecap="round" stroke-miterlimit="4" stroke-width="2.6667" d="M2.667 16h26.667"></path>
<path stroke-linejoin="round" stroke-linecap="round" stroke-miterlimit="4" stroke-width="2.6667" d="M2.667 9.333h6.667"></path>
<path stroke-linejoin="round" stroke-linecap="round" stroke-miterlimit="4" stroke-width="2.6667" d="M2.667 22.667h6.667"></path>
<path stroke-linejoin="round" stroke-linecap="round" stroke-miterlimit="4" stroke-width="2.6667" d="M22.667 22.667h6.667"></path>
<path stroke-linejoin="round" stroke-linecap="round" stroke-miterlimit="4" stroke-width="2.6667" d="M22.667 9.333h6.667"></path>
</symbol>
<symbol id="icon-search-main" viewBox="0 0 32 32">
<path stroke-linejoin="round" stroke-linecap="round" stroke-miterlimit="4" stroke-width="2.6667" d="M14.667 25.333c5.891 0 10.667-4.776 10.667-10.667s-4.776-10.667-10.667-10.667c-5.891 0-10.667 4.776-10.667 10.667s4.776 10.667 10.667 10.667z"></path>
<path stroke-linejoin="round" stroke-linecap="round" stroke-miterlimit="4" stroke-width="2.6667" d="M28 28.001l-5.8-5.8"></path>
</symbol>
<symbol id="icon-key" viewBox="0 0 32 32">
<path d="M16 31c-0.226 0-0.435-0.075-0.602-0.202l0.002 0.002-4-3c-0.244-0.184-0.4-0.474-0.4-0.8v0-9.53c-2.426-1.638-4-4.377-4-7.483 0-4.971 4.029-9 9-9s9 4.029 9 9c0 3.107-1.574 5.846-3.968 7.463l-0.032 0.020v1.53c0 0.002 0 0.004 0 0.006 0 0.275-0.111 0.524-0.29 0.704l0-0-1.3 1.29 1.3 1.29c0.183 0.181 0.296 0.432 0.296 0.71s-0.113 0.529-0.296 0.71l-0 0-1.3 1.29 1.3 1.29c0.181 0.181 0.293 0.431 0.293 0.707 0 0.026-0.001 0.051-0.003 0.076l0-0.003c-0.022 0.3-0.173 0.56-0.397 0.728l-0.003 0.002-4 3c-0.165 0.125-0.374 0.2-0.6 0.2v0zM13 26.5l3 2.25 2.48-1.86-1.19-1.18c-0.183-0.181-0.296-0.432-0.296-0.71s0.113-0.529 0.296-0.71l0-0 1.3-1.29-1.3-1.29c-0.183-0.181-0.296-0.432-0.296-0.71s0.113-0.529 0.296-0.71l0-0 1.71-1.7v-1.67c0.002-0.366 0.201-0.685 0.495-0.857l0.005-0.003c2.107-1.233 3.5-3.485 3.5-6.062 0-3.866-3.134-7-7-7s-7 3.134-7 7c0 2.577 1.393 4.829 3.467 6.044l0.033 0.018c0.299 0.175 0.498 0.494 0.5 0.86v0zM20 19v0z"></path>
<path d="M17 8c0 0.552-0.448 1-1 1s-1-0.448-1-1c0-0.552 0.448-1 1-1s1 0.448 1 1z"></path>
<path d="M16 10c-1.105 0-2-0.895-2-2s0.895-2 2-2c1.105 0 2 0.895 2 2v0c0 1.105-0.895 2-2 2v0z"></path>
</symbol>
<symbol id="icon-moon" viewBox="0 0 32 32">
<path d="M13.899 18.089c2.153 2.148 5.124 3.475 8.405 3.475 1.826 0 3.555-0.411 5.101-1.146l-0.072 0.031c-1.931 4.117-6.042 6.917-10.806 6.917-6.572 0-11.899-5.328-11.899-11.899 0-4.76 2.795-8.867 6.833-10.77l0.073-0.031c-0.704 1.472-1.115 3.2-1.115 5.023 0 3.28 1.33 6.25 3.48 8.399l0 0z"></path>
</symbol>
<symbol id="icon-Sun" viewBox="0 0 32 32">
<path d="M24.5 16c0 4.694-3.806 8.5-8.5 8.5s-8.5-3.806-8.5-8.5c0-4.694 3.806-8.5 8.5-8.5s8.5 3.806 8.5 8.5z"></path>
<path stroke-linejoin="miter" stroke-linecap="round" stroke-miterlimit="10" stroke-width="1.5" d="M16 2.5v3"></path>
<path stroke-linejoin="miter" stroke-linecap="round" stroke-miterlimit="10" stroke-width="1.5" d="M16 26.5v3"></path>
<path stroke-linejoin="miter" stroke-linecap="round" stroke-miterlimit="10" stroke-width="1.5" d="M29.5 16h-3"></path>
<path stroke-linejoin="miter" stroke-linecap="round" stroke-miterlimit="10" stroke-width="1.5" d="M5.5 16h-3"></path>
<path stroke-linejoin="miter" stroke-linecap="round" stroke-miterlimit="10" stroke-width="1.5" d="M25.545 6.455l-2.12 2.12"></path>
<path stroke-linejoin="miter" stroke-linecap="round" stroke-miterlimit="10" stroke-width="1.5" d="M8.575 23.425l-2.12 2.12"></path>
<path stroke-linejoin="miter" stroke-linecap="round" stroke-miterlimit="10" stroke-width="1.5" d="M25.545 25.545l-2.12-2.12"></path>
<path stroke-linejoin="miter" stroke-linecap="round" stroke-miterlimit="10" stroke-width="1.5" d="M8.575 8.575l-2.12-2.12"></path>
</symbol>
<symbol id="icon-arrow-left" viewBox="0 0 32 32">
<path stroke-linejoin="round" stroke-linecap="round" stroke-miterlimit="4" stroke-width="2.6667" d="M25.333 16h-18.667"></path>
<path stroke-linejoin="round" stroke-linecap="round" stroke-miterlimit="4" stroke-width="2.6667" d="M16 25.334l-9.333-9.333 9.333-9.333"></path>
</symbol>
<symbol id="icon-arrow-right" viewBox="0 0 32 32">
<path stroke-linejoin="round" stroke-linecap="round" stroke-miterlimit="4" stroke-width="2.6667" d="M6.667 16h18.667"></path>
<path stroke-linejoin="round" stroke-linecap="round" stroke-miterlimit="4" stroke-width="2.6667" d="M16 25.334l9.333-9.333-9.333-9.333"></path>
</symbol>
</defs>
</svg>
